PathFileType	4	(X/Y/Z)	Walk4.trc
DataRate	CameraRate	NumFrames	NumMarkers	Units	OrigDataRate	OrigDataStartFrame	OrigNumFrames
200.000000	200.000000	9	59	mm	200.000000	382	543
Frame#	Times		RFHD		CLAV		RBack		LASI		RACR1		RUA1		RElbow		RElbowM		RFA1		RWRR		RWRU		LACR1		LUA1		LFA1		LWRR		LWRU		RTH1		RTH3		RTH2		RTB3		RTB2		LTH1		LTH2		LTB2		RMT1		RCAR		LFHD		C7		RTB1		RTB4		RPSI		T10		LTH4		LBHD		LTH3		RLFC		STRN		RBHD		LLFC		LElbowM		LCAR		LTB4		RTH4		LTB1		LElbow		LPSI		LToe		LMMAL		RMT5		LCAL		RASI		LMT1		LMT5		LTB3		LLMAL		RToe		RCAL		RMMAL		RLMAL
			X1	Y1	Z1	X2	Y2	Z2	X3	Y3	Z3	X4	Y4	Z4	X5	Y5	Z5	X6	Y6	Z6	X7	Y7	Z7	X8	Y8	Z8	X9	Y9	Z9	X10	Y10	Z10	X11	Y11	Z11	X12	Y12	Z12	X13	Y13	Z13	X14	Y14	Z14	X15	Y15	Z15	X16	Y16	Z16	X17	Y17	Z17	X18	Y18	Z18	X19	Y19	Z19	X20	Y20	Z20	X21	Y21	Z21	X22	Y22	Z22	X23	Y23	Z23	X24	Y24	Z24	X25	Y25	Z25	X26	Y26	Z26	X27	Y27	Z27	X28	Y28	Z28	X29	Y29	Z29	X30	Y30	Z30	X31	Y31	Z31	X32	Y32	Z32	X33	Y33	Z33	X34	Y34	Z34	X35	Y35	Z35	X36	Y36	Z36	X37	Y37	Z37	X38	Y38	Z38	X39	Y39	Z39	X40	Y40	Z40	X41	Y41	Z41	X42	Y42	Z42	X43	Y43	Z43	X44	Y44	Z44	X45	Y45	Z45	X46	Y46	Z46	X47	Y47	Z47	X48	Y48	Z48	X49	Y49	Z49	X50	Y50	Z50	X51	Y51	Z51	X52	Y52	Z52	X53	Y53	Z53	X54	Y54	Z54	X55	Y55	Z55	X56	Y56	Z56	X57	Y57	Z57	X58	Y58	Z58	X59	Y59	Z59

382	1.91	110.33	1411.9	21.705	86.903	1172.4	-39.629	-103.38	1138	79.482	41.791	800.07	-205.04	13.218	1204.2	139.9	10.968	1063.6	222.03	-5.3435	939.11	257.51	-56.524	907.17	186.07	51.595	820.59	263.75	64.658	720.08	227.94	32.693	723.23	293.48	8.1097	1202.1	-225.57	26.299	1045.3	-301.4	90.884	865.43	-350.8	171.28	791.33	-317.45	138.47	765.22	-364.51	21.095	626.31	171.68	64.473	465.03	122.57	95.564	565	130.62	173.81	135.21	22.514	125.02	208.32	82.334	-39.582	640.16	-251.31	6.3118	557.61	-214.8	-156.94	213.9	-161.46	257.82	50.046	-9.6778	75.615	664.85	281.07	120.36	1422.3	-73.872	-52.961	1259.2	-38.933	147.09	303.71	39.699	157.52	217.35	31.054	-184.09	840.93	38.243	-142.59	1062.5	-26.582	-48.142	554.55	-235.85	-7.5409	1346.5	-104.52	-57.75	471.11	-210.69	74.021	387.83	94.25	136.33	1064.3	-40.606	-19.651	1340.9	27.538	-48.875	368.41	-180.35	-32.401	895.66	-268.42	196.92	744.92	-358.18	-139.21	204.75	-102.76	41.417	544.36	149.28	-80.187	268.85	-111.54	-4.8251	929.2	-333.78	-202.45	849.65	-67.147	-133.38	25.574	-84.367	-248.59	111.66	-46.324	234.42	31.407	76.162	-319.5	117.81	-79.515	74.762	814.25	121.68	-181.6	33.607	-59.479	-226.47	30.688	-141.84	-190.87	139.77	-96.015	-276.89	106.16	-124.64	304.67	63.51	27.461	92.415	26.361	9.1207	152.74	73.548	-24.824	142.61	59.874	56.979
383	1.915	116.03	1411.9	22.598	92.6	1172.3	-38.613	-97.246	1137.9	81.02	47.288	800.09	-204.17	19.55	1203.9	141.14	17.371	1063.1	223.02	1.0781	938.51	258.24	-50.35	906.79	186.92	57.791	819.88	264.24	70.587	719.37	228.26	38.74	722.5	293.87	13.319	1202.2	-224.43	31.056	1045.2	-300.3	95.261	865.32	-349.77	175.48	790.99	-316.59	142.53	764.97	-363.6	27.723	626.9	171.48	71.472	465.9	121.88	102.08	566.05	129.83	175.91	134.33	22.257	128.37	207.98	82.365	-32.991	640.11	-251.14	13.666	557.95	-214.91	-150.83	215.6	-162.25	258.74	47.108	-10.236	81.481	664.04	281.3	125.89	1422.4	-72.995	-47.115	1259.2	-37.476	151.25	303.09	39.622	160.65	216.66	30.911	-178.33	840.69	38.997	-136.96	1062.6	-25.209	-40.757	554.37	-235.96	-1.984	1346.4	-103.42	-49.538	470.77	-211.2	79.3	388.07	94.588	142.02	1064.2	-39.582	-13.874	1340.8	28.662	-40.115	368.01	-181.31	-27.839	895.79	-267.22	200.95	744.54	-357.38	-132.98	205.88	-103.71	48.198	545.12	148.8	-72.657	268.75	-112.69	-0.31952	929.28	-332.67	-196.99	848.86	-66.473	-133.65	25.523	-84.308	-244.06	115.07	-47	235.06	29.495	76.224	-314.6	123.44	-79.921	81.167	813.91	121.7	-180.88	33.86	-59.54	-225.28	32.568	-141.84	-185.93	142	-96.855	-272.81	110.32	-125.1	306.27	59.51	26.692	92.782	27.065	9.156	153.9	72.866	-25.005	143.73	59.597	56.889
384	1.92	121.73	1412	23.498	98.285	1172.2	-37.601	-91.122	1137.9	82.538	52.778	800.16	-203.27	25.9	1203.5	142.36	23.833	1062.6	223.99	7.5475	937.97	258.95	-44.159	906.47	187.77	64.028	819.23	264.72	76.543	718.72	228.57	44.834	721.84	294.25	18.567	1202.3	-223.29	35.751	1045.2	-299.19	99.527	865.21	-348.71	179.53	790.62	-315.72	146.42	764.69	-362.66	34.455	627.64	171.3	78.609	466.9	121.31	108.67	567.25	129.02	177.89	133.49	22.034	131.61	207.67	82.447	-26.265	640.09	-250.97	21.219	558.37	-215	-144.36	217.44	-163.07	259.49	44.381	-10.758	87.379	663.29	281.52	131.43	1422.4	-72.11	-41.254	1259.3	-36.037	155.34	302.51	39.607	163.67	216	30.816	-172.59	840.49	39.707	-131.35	1062.7	-23.873	-33.153	554.22	-236.09	3.5772	1346.3	-102.32	-41.027	470.46	-211.75	84.544	388.34	94.966	147.7	1064.1	-38.509	-8.0985	1340.8	29.779	-31.023	367.7	-182.29	-23.342	895.97	-265.98	204.8	744.13	-356.59	-126.36	207.1	-104.72	55.097	546.01	148.4	-64.769	268.72	-113.89	4.1	929.41	-331.52	-191.55	848.05	-65.835	-133.85	25.482	-84.29	-239.09	118.59	-47.719	235.55	27.821	76.358	-309.21	129.23	-80.332	87.54	813.72	121.74	-180	34.181	-59.605	-223.83	34.65	-141.86	-180.6	144.35	-97.742	-268.31	114.64	-125.59	307.65	55.803	25.945	93.063	27.724	9.2084	154.92	72.25	-25.171	144.72	59.367	56.817
385	1.925	127.43	1412.1	24.403	103.95	1172.2	-36.6	-85.015	1138	84.025	58.261	800.3	-202.34	32.254	1203.3	143.55	30.348	1062.3	224.92	14.06	937.51	259.66	-37.949	906.22	188.62	70.305	818.65	265.17	82.528	718.14	228.86	50.977	721.25	294.62	23.853	1202.4	-222.17	40.392	1045.2	-298.09	103.68	865.1	-347.64	183.45	790.21	-314.84	150.14	764.39	-361.72	41.257	628.5	171.17	85.829	468	120.89	115.32	568.57	128.22	179.74	132.69	21.841	134.76	207.37	82.572	-19.409	640.11	-250.81	28.958	558.87	-215.05	-137.53	219.38	-163.93	260.09	41.894	-11.242	93.314	662.6	281.71	136.97	1422.5	-71.217	-35.389	1259.4	-34.626	159.36	301.94	39.658	166.58	215.36	30.764	-166.89	840.35	40.369	-125.77	1063	-22.582	-25.342	554.12	-236.24	9.1412	1346.3	-101.23	-32.238	470.2	-212.33	89.748	388.65	95.375	153.36	1064.1	-37.396	-2.327	1340.8	30.885	-21.63	367.46	-183.27	-18.908	896.22	-264.7	208.49	743.68	-355.81	-119.38	208.4	-105.76	62.071	547.03	148.08	-56.549	268.77	-115.13	8.4367	929.58	-330.35	-186.12	847.24	-65.235	-133.93	25.456	-84.331	-233.7	122.18	-48.477	235.93	26.391	76.547	-303.35	135.14	-80.746	93.877	813.68	121.82	-178.93	34.587	-59.68	-222.09	36.932	-141.92	-174.87	146.79	-98.669	-263.38	119.1	-126.08	308.84	52.426	25.224	93.279	28.329	9.2736	155.81	71.701	-25.324	145.58	59.181	56.758
386	1.93	133.13	1412.2	25.312	109.6	1172.2	-35.617	-78.933	1138.1	85.467	63.735	800.49	-201.4	38.603	1203.1	144.71	36.909	1062	225.83	20.61	937.12	260.35	-31.724	906.04	189.48	76.622	818.15	265.61	88.542	717.64	229.13	57.172	720.74	294.99	29.173	1202.7	-221.06	44.983	1045.2	-296.98	107.73	865	-346.56	187.24	789.77	-313.96	153.71	764.06	-360.75	48.097	629.48	171.1	93.068	469.17	120.63	121.97	569.98	127.46	181.47	131.92	21.668	137.79	207.08	82.732	-12.429	640.16	-250.66	36.864	559.44	-215.05	-130.36	221.43	-164.8	260.57	39.663	-11.691	99.289	661.98	281.88	142.51	1422.6	-70.318	-29.535	1259.6	-33.251	163.29	301.38	39.772	169.38	214.75	30.752	-161.22	840.28	40.98	-120.22	1063.2	-21.342	-17.339	554.07	-236.4	14.706	1346.3	-100.16	-23.199	469.98	-212.92	94.904	388.97	95.808	159	1064.2	-36.25	3.4364	1340.8	31.978	-11.973	367.32	-184.24	-14.536	896.52	-263.37	212.01	743.19	-355.03	-112.06	209.78	-106.84	69.073	548.15	147.87	-48.027	268.89	-116.4	12.694	929.79	-329.15	-180.71	846.42	-64.675	-133.84	25.448	-84.453	-227.88	125.81	-49.262	236.2	25.2	76.771	-297.02	141.1	-81.158	100.17	813.81	121.94	-177.61	35.101	-59.777	-220.03	39.411	-142.01	-168.78	149.32	-99.628	-258.03	123.65	-126.58	309.85	49.397	24.533	93.446	28.87	9.3485	156.57	71.218	-25.466	146.34	59.037	56.707
387	1.935	138.82	1412.4	26.223	115.22	1172.3	-34.659	-72.883	1138.4	86.856	69.198	800.74	-200.47	44.933	1203	145.81	43.509	1061.8	226.69	27.192	936.81	261.02	-25.483	905.93	190.32	82.979	817.73	266.03	94.586	717.22	229.39	63.423	720.32	295.35	34.522	1203	-219.99	49.532	1045.3	-295.89	111.68	864.89	-345.46	190.89	789.3	-313.08	157.12	763.71	-359.79	54.943	630.54	171.09	100.26	470.39	120.54	128.61	571.43	126.76	183.08	131.19	21.513	140.7	206.8	82.924	-5.3335	640.27	-250.51	44.915	560.09	-215.01	-122.88	223.57	-165.67	260.94	37.694	-12.107	105.31	661.43	282.02	148.06	1422.8	-69.414	-23.705	1259.8	-31.919	167.14	300.83	39.946	172.06	214.17	30.776	-155.59	840.28	41.536	-114.7	1063.5	-20.158	-9.1629	554.09	-236.57	20.27	1346.4	-99.097	-13.942	469.82	-213.53	99.994	389.3	96.258	164.62	1064.3	-35.082	9.1882	1340.8	33.053	-2.0946	367.28	-185.18	-10.225	896.89	-262.02	215.36	742.65	-354.26	-104.41	211.21	-107.93	76.056	549.34	147.77	-39.236	269.1	-117.67	16.875	930.04	-327.93	-175.31	845.61	-64.156	-133.49	25.467	-84.678	-221.66	129.47	-50.063	236.4	24.236	77.01	-290.26	147.07	-81.563	106.41	814.09	122.1	-175.99	35.745	-59.915	-217.6	42.078	-142.13	-162.32	151.91	-100.6	-252.27	128.25	-127.08	310.72	46.723	23.871	93.576	29.344	9.4311	157.23	70.799	-25.598	147	58.93	56.665
388	1.94	144.51	1412.5	27.135	120.8	1172.4	-33.731	-66.872	1138.6	88.18	74.651	801.06	-199.55	51.234	1202.9	146.86	50.139	1061.6	227.52	33.798	936.58	261.68	-19.23	905.89	191.16	89.373	817.41	266.42	100.66	716.88	229.63	69.731	719.99	295.7	39.891	1203.4	-218.94	54.043	1045.5	-294.8	115.53	864.78	-344.37	194.42	788.8	-312.2	160.39	763.34	-358.81	61.765	631.68	171.16	107.34	471.63	120.62	135.18	572.88	126.15	184.58	130.5	21.374	143.49	206.52	83.142	1.8658	640.43	-250.36	53.085	560.82	-214.91	-115.11	225.77	-166.54	261.22	35.988	-12.491	111.38	660.96	282.15	153.62	1423	-68.508	-17.91	1260.1	-30.636	170.87	300.29	40.174	174.63	213.6	30.833	-150	840.35	42.037	-109.22	1063.9	-19.035	-0.83886	554.17	-236.75	25.829	1346.5	-98.057	-4.5047	469.73	-214.14	105	389.63	96.72	170.21	1064.4	-33.902	14.925	1340.9	34.106	7.9635	367.34	-186.09	-5.9717	897.3	-260.63	218.56	742.07	-353.49	-96.473	212.71	-109.01	82.972	550.58	147.79	-30.214	269.39	-118.93	20.984	930.32	-326.69	-169.92	844.83	-63.68	-132.82	25.52	-85.028	-215.05	133.12	-50.861	236.53	23.477	77.249	-283.09	152.99	-81.954	112.6	814.52	122.31	-174	36.54	-60.112	-214.77	44.923	-142.3	-155.52	154.55	-101.58	-246.11	132.87	-127.57	311.45	44.398	23.242	93.676	29.752	9.5198	157.79	70.443	-25.72	147.57	58.854	56.633
389	1.945	150.2	1412.7	28.044	126.35	1172.6	-32.84	-60.908	1138.9	89.432	80.09	801.42	-198.67	57.491	1202.9	147.86	56.789	1061.5	228.29	40.421	936.43	262.32	-12.966	905.92	192	95.804	817.17	266.79	106.76	716.63	229.85	76.098	719.75	296.04	45.268	1203.8	-217.94	58.522	1045.6	-293.73	119.29	864.68	-343.26	197.83	788.27	-311.33	163.51	762.95	-357.84	68.536	632.87	171.3	114.24	472.86	120.84	141.66	574.3	125.66	185.98	129.84	21.251	146.15	206.25	83.382	9.1552	640.64	-250.21	61.348	561.61	-214.74	-107.07	228.03	-167.37	261.42	34.535	-12.842	117.5	660.58	282.25	159.18	1423.2	-67.601	-12.164	1260.4	-29.407	174.5	299.76	40.449	177.08	213.06	30.919	-144.45	840.49	42.482	-103.77	1064.2	-17.976	7.6062	554.34	-236.94	31.382	1346.7	-97.04	5.0722	469.73	-214.73	109.9	389.95	97.19	175.77	1064.6	-32.721	20.643	1341	35.135	18.158	367.52	-186.93	-1.775	897.77	-259.23	221.61	741.44	-352.72	-88.269	214.26	-110.06	89.776	551.85	147.92	-20.996	269.76	-120.14	25.023	930.64	-325.45	-164.53	844.08	-63.248	-131.73	25.617	-85.523	-208.09	136.73	-51.635	236.62	22.902	77.479	-275.55	158.8	-82.323	118.73	815.09	122.58	-171.56	37.504	-60.39	-211.51	47.931	-142.52	-148.4	157.21	-102.54	-239.57	137.47	-128.04	312.06	42.406	22.649	93.754	30.094	9.6136	158.25	70.146	-25.829	148.06	58.804	56.612
390	1.95	155.88	1412.9	28.949	131.86	1172.8	-31.992	-54.996	1139.2	90.607	85.517	801.84	-197.83	63.696	1203	148.8	63.452	1061.5	229.02	47.055	936.35	262.94	-6.6955	906	192.82	102.27	817.02	267.13	112.9	716.47	230.05	82.525	719.6	296.38	50.642	1204.3	-216.97	62.972	1045.9	-292.68	122.96	864.57	-342.17	201.12	787.71	-310.47	166.51	762.54	-356.87	75.229	634.09	171.51	120.89	474.06	121.19	148.02	575.63	125.29	187.26	129.23	21.148	148.69	205.98	83.641	16.519	640.93	-250.05	69.674	562.48	-214.52	-98.788	230.32	-168.16	261.56	33.324	-13.158	123.67	660.27	282.34	164.75	1423.4	-66.697	-6.474	1260.8	-28.236	178	299.24	40.761	179.42	212.54	31.03	-138.94	840.7	42.869	-98.351	1064.6	-16.981	16.142	554.59	-237.12	36.925	1347	-96.051	14.746	469.82	-215.31	114.68	390.25	97.666	181.29	1064.8	-31.55	26.338	1341.2	36.135	28.448	367.8	-187.71	2.3677	898.29	-257.8	224.52	740.77	-351.97	-79.83	215.85	-111.06	96.425	553.11	148.16	-11.618	270.24	-121.3	28.995	930.99	-324.19	-159.14	843.37	-62.862	-130.14	25.77	-86.185	-200.79	140.29	-52.36	236.67	22.484	77.694	-267.69	164.45	-82.657	124.79	815.79	122.89	-168.61	38.645	-60.765	-207.76	51.084	-142.78	-140.98	159.87	-103.46	-232.68	142.01	-128.47	312.58	40.725	22.096	93.813	30.377	9.7112	158.64	69.904	-25.923	148.48	58.776	56.602
